<?xml version="1.0" encoding="UTF-8"?>
<svg width="152px" height="152px" viewBox="0 0 152 152" version="1.1" xmlns="http://www.w3.org/2000/svg" xmlns:xlink="http://www.w3.org/1999/xlink">
    <title>Group</title>
    <defs>
        <filter id="filter-1">
            <feColorMatrix in="SourceGraphic" type="matrix" values="0 0 0 0 0.968627 0 0 0 0 0.933333 0 0 0 0 0.874510 0 0 0 1.000000 0"></feColorMatrix>
        </filter>
    </defs>
    <g id="🎨-Setup-—-Customize-Here-" stroke="none" stroke-width="1" fill="none" fill-rule="evenodd">
        <g id="Logo" transform="translate(-638.000000, -323.000000)">
            <g id="Group" transform="translate(638.000000, 323.000000)">
                <rect id="Rectangle" fill="#164036" x="0" y="0" width="152" height="152" rx="7"></rect>
                <g filter="url(#filter-1)" id="bike">
                    <g transform="translate(14.000000, 37.000000)">
                        <path d="M21.1434328,77.6024274 C22.1240771,77.7755987 23.0585962,77.1228388 23.2325272,76.1422559 C23.4069387,75.1614324 22.7537364,74.2248638 21.7740529,74.0507303 C11.2454589,72.1768716 3.60354378,63.0324604 3.60354378,52.3076197 C3.60354378,40.129823 13.4991152,30.2227361 25.6627571,30.2227361 C28.5638501,30.2227361 31.335696,30.7874673 33.8752334,31.8111026 L32.7756721,34.0147085 C30.5688619,33.1514972 28.1713041,32.6723897 25.6627571,32.6723897 C14.8485223,32.6723897 6.05059024,41.4805598 6.05059024,52.3076197 C6.05059024,63.1344391 14.8485223,71.9426092 25.6627571,71.9426092 C35.8691943,71.9426092 44.2757815,64.0955403 45.1886792,54.1114883 L47.6460558,54.1114883 C46.8443875,64.0435889 39.4842694,72.2829391 29.5514613,74.0507303 C28.5717779,74.2251043 27.9185755,75.1614324 28.0929871,76.1422559 C28.2481797,77.0165308 29.0078067,77.6305677 29.8647294,77.6305677 C29.9694724,77.6305677 30.0756568,77.6214281 30.1820815,77.6024274 C40.2753674,75.8060147 48.0830456,68.2672871 50.5226447,58.6913905 C51.6474308,59.7296972 53.0458461,60.4745747 54.5960906,60.8038409 L54.5960906,64.4902267 L53.0177384,64.4902267 C52.0224396,64.4902267 51.2159665,65.2976383 51.2159665,66.2940953 C51.2159665,67.2905524 52.0224396,68.0979639 53.0177384,68.0979639 L59.7779865,68.0979639 C60.7732853,68.0979639 61.5797584,67.2905524 61.5797584,66.2940953 C61.5797584,65.2976383 60.7732853,64.4902267 59.7779865,64.4902267 L58.1998746,64.4902267 L58.1998746,60.8038409 C62.1217314,59.9709346 65.0737545,56.4784045 65.0737545,52.3073792 C65.0737545,50.3635304 64.4325639,48.5668773 63.3510203,47.1182505 L84.6628587,23.4858882 L86.6940562,28.9309257 C77.8408699,32.9872249 71.6744857,41.9397045 71.6744857,52.3073792 C71.6744857,66.4742417 83.1868472,78 97.3372429,78 C111.487639,78 123,66.4742417 123,52.3073792 C123,38.1405167 111.487639,26.6147584 97.3372429,26.6147584 C94.813561,26.6147584 92.3744424,26.9832286 90.0688951,27.666053 L83.9008293,11.1303503 L94.223781,11.1303503 C94.9358413,12.8659124 96.6405577,14.0923026 98.6275518,14.0923026 C99.013131,14.0923026 99.3268795,14.4064162 99.3268795,14.7924441 C99.3268795,15.178472 99.013131,15.4925856 98.6275518,15.4925856 L96.434435,15.4925856 C93.8096137,15.4925856 91.6741537,17.6307712 91.6741537,20.2584065 C91.6741537,22.8860418 93.809854,25.0239868 96.434435,25.0239868 L98.6275518,25.0239868 C104.263014,25.0239868 108.847682,20.433983 108.847682,14.7922036 C108.847682,9.15042414 104.263014,4.56042035 98.6275518,4.56042035 C96.6405577,4.56042035 94.9358413,5.78681048 94.223781,7.52213208 L81.3045961,7.52213208 C80.0726646,7.52213208 79.1717787,8.75982646 79.6166962,9.95711418 L81.4441734,14.8561808 L44.6990777,14.8561808 L43.5519496,11.7809456 C44.2827483,11.3268517 44.90472,10.6947762 45.3433914,9.92223939 C45.6319151,9.41354844 46.1743685,9.09727015 46.7591036,9.09727015 L54.4207181,9.09727015 C56.5410433,9.09727015 57.9855839,6.94393206 57.1867983,4.97915838 L57.1865581,4.97891786 C55.9555875,1.9544315 53.0520922,0 49.7896839,0 L31.3311315,0 C28.8694306,0 26.8668212,2.00518034 26.8668212,4.46974589 C26.8668212,8.93756765 30.4975117,12.5724831 34.9603805,12.5724831 L40.0005371,12.5724831 L41.4863983,16.5559061 L35.4901015,28.5737597 C32.4616833,27.3120138 29.142339,26.6140369 25.6629974,26.6140369 C11.5123614,26.6149989 0,38.1407573 0,52.3076197 C0,64.7841371 8.89210463,75.4221515 21.1434328,77.6024274 Z M97.3372429,30.2227361 C109.500885,30.2227361 119.396456,40.129823 119.396456,52.3076197 C119.396456,64.4854164 109.500885,74.3925033 97.3372429,74.3925033 C85.173601,74.3925033 75.2780295,64.4854164 75.2780295,52.3076197 C75.2780295,43.4857402 80.4719373,35.8565786 87.9586598,32.3212366 L88.8177447,34.6241755 C82.2590548,37.8042756 77.7253162,44.5355917 77.7253162,52.3076197 C77.7253162,63.1344391 86.5232482,71.9426092 97.3374831,71.9426092 C106.422738,71.9426092 114.259484,65.7738596 116.395425,56.9411569 C116.629655,55.9730807 116.035551,54.9980296 115.06836,54.7635267 C114.100929,54.5283022 113.127491,55.1240599 112.893261,56.0921361 C111.150107,63.300395 104.753336,68.3346315 97.3374831,68.3346315 C88.5104825,68.3346315 81.32886,61.1446518 81.32886,52.3073792 C81.32886,46.0821084 84.8946867,40.6784396 90.0866726,38.0255502 L93.9299721,48.3287666 C92.8102309,49.2913109 92.0986512,50.7173292 92.0986512,52.3076197 C92.0986512,55.1995819 94.4486422,57.5525481 97.3374831,57.5525481 C100.226324,57.5525481 102.576555,55.1998224 102.576555,52.3076197 C102.576555,49.4154171 100.226324,47.0626914 97.3374831,47.0626914 C97.3264322,47.0626914 97.3156216,47.0634129 97.304811,47.0634129 L93.4607907,36.7577913 C94.7028121,36.4472854 96.0008086,36.2798864 97.3377233,36.2798864 C104.753576,36.2798864 111.150347,41.3143634 112.893501,48.5226224 C113.127731,49.490458 114.100929,50.0854941 115.0686,49.8512317 C116.035791,49.6167288 116.629896,48.6419182 116.395665,47.6736015 C114.259725,38.8406583 106.422738,32.6719087 97.3377233,32.6719087 C95.557813,32.6719087 93.8345983,32.9148297 92.1942652,33.361708 L91.3334987,31.0537183 C93.242416,30.5127982 95.2565567,30.2227361 97.3372429,30.2227361 L97.3372429,30.2227361 Z M97.3372429,50.6706691 C98.2390898,50.6706691 98.9727713,51.4052044 98.9727713,52.3078602 C98.9727713,53.2105161 98.2390898,53.9450514 97.3372429,53.9450514 C96.4356362,53.9450514 95.7019547,53.2105161 95.7019547,52.3078602 C95.7019547,51.4052044 96.4356362,50.6706691 97.3372429,50.6706691 Z M37.0970418,33.4273688 C42.9782655,37.010814 47.0610806,43.270238 47.6479777,50.5039916 L45.1886792,50.5039916 C44.6147548,44.2282125 41.0803991,38.7992896 35.9977207,35.6304937 L37.0970418,33.4273688 Z M30.5823151,50.5037511 C30.3353522,49.8310284 29.9533766,49.2232449 29.4712224,48.7116678 L34.3792491,38.8748115 C38.2883733,41.4262033 41.02034,45.6373947 41.5673579,50.5037511 L30.5823151,50.5037511 Z M25.6627571,50.6706691 C26.5643638,50.6706691 27.2980453,51.4052044 27.2980453,52.3078602 C27.2980453,53.2105161 26.5643638,53.9450514 25.6627571,53.9450514 C24.7609102,53.9450514 24.0272287,53.2105161 24.0272287,52.3078602 C24.0272287,51.4052044 24.7609102,50.6706691 25.6627571,50.6706691 Z M25.6627571,68.334872 C16.8357565,68.334872 9.65413402,61.1448923 9.65413402,52.3076197 C9.65413402,43.4701067 16.8357565,36.2801269 25.6627571,36.2801269 C27.5930554,36.2801269 29.4445562,36.6240645 31.1596028,37.2537349 L26.2484531,47.0963636 C26.0560239,47.0747172 25.8607118,47.0626914 25.6627571,47.0626914 C22.7741564,47.0626914 20.423685,49.4154171 20.423685,52.3076197 C20.423685,55.1998224 22.7739162,57.5525481 25.6627571,57.5525481 C27.9185755,57.5525481 29.845991,56.1176307 30.5823151,54.1114883 L41.5673579,54.1114883 C40.6686341,62.1023857 33.8805186,68.334872 25.6627571,68.334872 Z M58.1998746,57.048908 L58.1998746,52.3076197 C58.1998746,51.3111627 57.3934015,50.5037511 56.3981027,50.5037511 C55.4028039,50.5037511 54.5963308,51.3111627 54.5963308,52.3076197 L54.5963308,57.048908 C52.6874136,56.319183 51.3257545,54.4720215 51.3257545,52.3076197 C51.3257545,49.5075346 53.6012723,47.2296093 56.3981027,47.2296093 C59.1949332,47.2296093 61.4702107,49.5077751 61.4702107,52.3076197 C61.4702107,54.4720215 60.1085516,56.319183 58.1998746,57.048908 Z M98.6275518,8.1688791 C102.27602,8.1688791 105.244139,11.1402115 105.244139,14.7929251 C105.244139,18.4456388 102.27602,21.4169712 98.6275518,21.4169712 L96.434435,21.4169712 C95.7966078,21.4169712 95.2776975,20.897457 95.2776975,20.259128 C95.2776975,19.6205586 95.7966078,19.1010444 96.434435,19.1010444 L98.6275518,19.1010444 C101.000125,19.1010444 102.930423,17.1684998 102.930423,14.7931657 C102.930423,12.4178315 101.000125,10.4852869 98.6275518,10.4852869 C97.9897245,10.4852869 97.4708142,9.96577275 97.4708142,9.32720326 C97.4708142,8.68839326 97.9897245,8.1688791 98.6275518,8.1688791 Z M82.7897366,18.4646396 L83.2423417,19.6778013 L60.643798,44.737144 C59.3878429,44.0283439 57.939939,43.6218721 56.398343,43.6218721 C56.0773873,43.6218721 55.7609962,43.6406324 55.4489293,43.6750261 L46.0451214,18.4646396 L82.7897366,18.4646396 L82.7897366,18.4646396 Z M30.4701248,4.47070795 C30.4701248,3.99520818 30.8561844,3.60869927 31.3308913,3.60869927 L49.7894437,3.60869927 C51.2517617,3.60869927 52.5826706,4.32423382 53.3893839,5.490495 L46.7588634,5.490495 C44.8806963,5.490495 43.1377823,6.50619328 42.2099899,8.14073875 C41.9212259,8.64967022 41.3785323,8.96594851 40.7937972,8.96594851 L34.9599001,8.96594851 C32.4845057,8.965708 30.4701248,6.94922341 30.4701248,4.47070795 L30.4701248,4.47070795 Z M43.209613,21.1766959 L52.0255627,44.8105013 C51.4850311,45.1277416 50.9814959,45.5007817 50.5236057,45.923368 C48.813604,39.2529024 44.4876698,33.6219461 38.7114294,30.1926717 L43.209613,21.1766959 Z" id="Shape" fill="#000000" fill-rule="nonzero"></path>
                    </g>
                </g>
            </g>
        </g>
    </g>
</svg>