<?xml version="1.0" encoding="UTF-8"?>
<svg width="152px" height="153px" viewBox="0 0 152 153" version="1.1" xmlns="http://www.w3.org/2000/svg" xmlns:xlink="http://www.w3.org/1999/xlink">
    <title>Group 2</title>
    <defs>
        <filter id="filter-1">
            <feColorMatrix in="SourceGraphic" type="matrix" values="0 0 0 0 0.968627 0 0 0 0 0.933333 0 0 0 0 0.874510 0 0 0 1.000000 0"></feColorMatrix>
        </filter>
    </defs>
    <g id="🎨-Setup-—-Customize-Here-" stroke="none" stroke-width="1" fill="none" fill-rule="evenodd">
        <g id="Logo" transform="translate(-638.000000, -323.000000)">
            <g id="Group-2" transform="translate(638.000000, 323.000000)">
                <g id="Group">
                    <rect id="Rectangle" fill="#164036" x="0" y="0" width="152" height="152" rx="7"></rect>
                    <g filter="url(#filter-1)" id="bike">
                        <g transform="translate(28.000000, 22.000000)">
                            <path d="M16.3302936,59.6941749 C17.0877019,59.8273837 17.8094848,59.3252606 17.9438218,58.570966 C18.0785299,57.8164864 17.574024,57.0960491 16.8173579,56.9621003 C8.68551707,55.5206705 2.78322487,48.486508 2.78322487,40.2366306 C2.78322487,30.8690946 10.4261459,23.2482586 19.8208287,23.2482586 C22.0615102,23.2482586 24.2023668,23.6826671 26.1637982,24.4700789 L25.3145435,26.1651604 C23.6100966,25.5011517 21.7583243,25.1326075 19.8208287,25.1326075 C11.4683708,25.1326075 4.6732201,31.908123 4.6732201,40.2366306 C4.6732201,48.5649531 11.4683708,55.3404686 19.8208287,55.3404686 C27.7038492,55.3404686 34.1967418,49.3042618 34.9018254,41.6242218 L36.7997992,41.6242218 C36.1806245,49.2642991 30.4959804,55.6022608 22.8242994,56.9621003 C22.0676333,57.0962341 21.5631274,57.8164864 21.6978355,58.570966 C21.8176997,59.2434853 22.4044036,59.7158213 23.0662544,59.7158213 C23.1471535,59.7158213 23.2291659,59.7087909 23.3113638,59.6941749 C31.1069911,58.312319 37.1373116,52.5132977 39.0215549,45.1472234 C39.8902921,45.9459209 40.9703689,46.5189036 42.1677122,46.7721853 L42.1677122,49.6078667 L40.9486598,49.6078667 C40.179933,49.6078667 39.5570473,50.2289526 39.5570473,50.995458 C39.5570473,51.7619633 40.179933,52.3830492 40.9486598,52.3830492 L46.1699896,52.3830492 C46.9387163,52.3830492 47.561602,51.7619633 47.561602,50.995458 C47.561602,50.2289526 46.9387163,49.6078667 46.1699896,49.6078667 L44.9511227,49.6078667 L44.9511227,46.7721853 C47.9801991,46.1314881 50.2602169,43.4449265 50.2602169,40.2364455 C50.2602169,38.7411772 49.7649884,37.3591364 48.9296498,36.2448081 L65.3900128,18.0660678 L66.9588239,22.2545582 C60.120997,25.3747884 55.3583426,32.2613112 55.3583426,40.2364455 C55.3583426,51.1340321 64.2500039,60 75.1791713,60 C86.1083387,60 95,51.1340321 95,40.2364455 C95,29.338859 86.1083387,20.4728911 75.1791713,20.4728911 C73.2299862,20.4728911 71.346114,20.7563297 69.5654068,21.2815793 L64.8014535,8.56180794 L72.774465,8.56180794 C73.3244303,9.89685572 74.6410812,10.8402327 76.1757514,10.8402327 C76.4735564,10.8402327 76.7158825,11.0818586 76.7158825,11.3788032 C76.7158825,11.6757477 76.4735564,11.9173736 76.1757514,11.9173736 L74.4818807,11.9173736 C72.4545797,11.9173736 70.8052407,13.5621317 70.8052407,15.5833896 C70.8052407,17.6046475 72.4547653,19.2492206 74.4818807,19.2492206 L76.1757514,19.2492206 C80.528344,19.2492206 84.0693482,15.7184485 84.0693482,11.3786181 C84.0693482,7.0387878 80.528344,3.50801565 76.1757514,3.50801565 C74.6410812,3.50801565 73.3244303,4.45139268 72.774465,5.78625545 L62.7962328,5.78625545 C61.844741,5.78625545 61.1489348,6.73832805 61.4925703,7.6593186 L62.9040364,11.4278314 L34.5236779,11.4278314 L33.6376847,9.06226584 C34.2021227,8.71296288 34.6825073,8.22675091 35.0213185,7.63249184 C35.2441621,7.24119111 35.6631302,6.99790011 36.1147548,6.99790011 L42.032262,6.99790011 C43.6699115,6.99790011 44.7856136,5.3414862 44.1686654,3.83012183 L44.1684798,3.82993682 C43.2177302,1.50340885 40.9751932,0 38.4554469,0 L24.1988414,0 C22.2975277,0 20.7507969,1.54244642 20.7507969,3.43826607 C20.7507969,6.87505203 23.5549887,9.67114088 27.0019199,9.67114088 L30.8947238,9.67114088 L32.0423402,12.7353123 L27.411054,21.9798152 C25.0720318,21.0092414 22.5083106,20.4723361 19.8210142,20.4723361 C8.89166126,20.4730761 0,29.339044 0,40.2366306 C0,49.8339516 6.86788569,58.0170396 16.3302936,59.6941749 Z M75.1791713,23.2482586 C84.5738541,23.2482586 92.2167751,30.8690946 92.2167751,40.2366306 C92.2167751,49.6041665 84.5738541,57.2250025 75.1791713,57.2250025 C65.7844886,57.2250025 58.1415675,49.6041665 58.1415675,40.2366306 C58.1415675,33.4505694 62.1531223,27.5819835 67.9355503,24.8624897 L68.5990711,26.6339812 C63.5334163,29.080212 60.0317483,34.2581475 60.0317483,40.2366306 C60.0317483,48.5649531 66.826899,55.3404686 75.1793569,55.3404686 C82.1964234,55.3404686 88.2491953,50.5952766 89.8989055,43.8008899 C90.0798151,43.0562159 89.6209541,42.3061766 88.8739365,42.1257898 C88.1267334,41.9448479 87.3748916,42.403123 87.193982,43.147797 C85.8476433,48.6926115 80.9070481,52.5651012 75.1793569,52.5651012 C68.3617548,52.5651012 62.8149732,47.0343475 62.8149732,40.2364455 C62.8149732,35.4477757 65.5690669,31.2911074 69.5791373,29.2504232 L72.5475394,37.1759743 C71.6826987,37.916393 71.1331046,39.0133301 71.1331046,40.2366306 C71.1331046,42.4612168 72.9481383,44.2711908 75.1793569,44.2711908 C77.4105755,44.2711908 79.2257947,42.4614018 79.2257947,40.2366306 C79.2257947,38.0118593 77.4105755,36.2020703 75.1793569,36.2020703 C75.1708216,36.2020703 75.162472,36.2026253 75.1541223,36.2026253 L72.1851636,28.2752241 C73.1444484,28.0363734 74.146966,27.9076049 75.1795424,27.9076049 C80.9072337,27.9076049 85.8478289,31.7802796 87.1941675,37.3250941 C87.3750771,38.0695831 88.1267334,38.5273032 88.8741221,38.3471013 C89.6211396,38.1667145 90.0800006,37.4168602 89.899091,36.6720012 C88.2493809,29.8774294 82.1964234,25.1322374 75.1795424,25.1322374 C73.8048149,25.1322374 72.4738767,25.3190997 71.2069528,25.6628523 L70.5421331,23.8874756 C72.0165001,23.4713832 73.5721373,23.2482586 75.1791713,23.2482586 L75.1791713,23.2482586 Z M75.1791713,38.9774378 C75.8757197,38.9774378 76.4423843,39.5424649 76.4423843,40.2368156 C76.4423843,40.9311662 75.8757197,41.4961934 75.1791713,41.4961934 C74.4828085,41.4961934 73.9161439,40.9311662 73.9161439,40.2368156 C73.9161439,39.5424649 74.4828085,38.9774378 75.1791713,38.9774378 Z M28.6521867,25.7133607 C33.1945953,28.4698569 36.347989,33.2847985 36.8012836,38.8492243 L34.9018254,38.8492243 C34.4585505,34.0217019 31.7287635,29.8456073 27.8031176,27.4080721 L28.6521867,25.7133607 Z M23.6204873,38.8490393 C23.4297436,38.3315603 23.1347218,37.8640346 22.7623263,37.4705137 L26.5530785,29.9037012 C29.5723209,31.8663102 31.6823764,35.1056882 32.10487,38.8490393 L23.6204873,38.8490393 Z M19.8208287,38.9774378 C20.5171915,38.9774378 21.0838561,39.5424649 21.0838561,40.2368156 C21.0838561,40.9311662 20.5171915,41.4961934 19.8208287,41.4961934 C19.1242803,41.4961934 18.5576157,40.9311662 18.5576157,40.2368156 C18.5576157,39.5424649 19.1242803,38.9774378 19.8208287,38.9774378 Z M19.8208287,52.5652862 C13.0032266,52.5652862 7.45644497,47.0345325 7.45644497,40.2366306 C7.45644497,33.4385436 13.0032266,27.9077899 19.8208287,27.9077899 C21.3117095,27.9077899 22.7417304,28.1723573 24.0663599,28.6567192 L20.2731955,36.227972 C20.1245713,36.2113209 19.9737205,36.2020703 19.8208287,36.2020703 C17.5897956,36.2020703 15.7743908,38.0118593 15.7743908,40.2366306 C15.7743908,42.4614018 17.5896101,44.2711908 19.8208287,44.2711908 C21.5631274,44.2711908 23.0517817,43.1674083 23.6204873,41.6242218 L32.10487,41.6242218 C31.4107337,47.7710659 26.1678802,52.5652862 19.8208287,52.5652862 Z M44.9511227,43.8837754 L44.9511227,40.2366306 C44.9511227,39.4701252 44.3282369,38.8490393 43.5595102,38.8490393 C42.7907835,38.8490393 42.1678978,39.4701252 42.1678978,40.2366306 L42.1678978,43.8837754 C40.6935308,43.3224485 39.6418429,41.901555 39.6418429,40.2366306 C39.6418429,38.0827189 41.3993566,36.3304687 43.5595102,36.3304687 C45.7196638,36.3304687 47.476992,38.082904 47.476992,40.2366306 C47.476992,41.901555 46.4253041,43.3224485 44.9511227,43.8837754 Z M76.1757514,6.28375316 C78.9936738,6.28375316 81.2861233,8.56939344 81.2861233,11.3791732 C81.2861233,14.1889529 78.9936738,16.4745932 76.1757514,16.4745932 L74.4818807,16.4745932 C73.9892499,16.4745932 73.5884655,16.0749669 73.5884655,15.5839446 C73.5884655,15.0927373 73.9892499,14.6931111 74.4818807,14.6931111 L76.1757514,14.6931111 C78.0082266,14.6931111 79.4991074,13.2065383 79.4991074,11.3793582 C79.4991074,9.55217806 78.0082266,8.06560531 76.1757514,8.06560531 C75.6831206,8.06560531 75.2823362,7.66597904 75.2823362,7.17477174 C75.2823362,6.68337943 75.6831206,6.28375316 76.1757514,6.28375316 Z M63.9432925,14.2035689 L64.2928656,15.1367702 L46.8387058,34.4131877 C45.8686591,33.8679568 44.7503594,33.5552863 43.5596958,33.5552863 C43.3118032,33.5552863 43.0674361,33.5697172 42.8264088,33.5961739 L35.5633052,14.2035689 L63.9432925,14.2035689 L63.9432925,14.2035689 Z M23.5338362,3.43900611 C23.5338362,3.07323707 23.8320124,2.77592252 24.1986558,2.77592252 L38.4552614,2.77592252 C39.584694,2.77592252 40.6126317,3.32633371 41.235703,4.22345769 L36.1145693,4.22345769 C34.6639525,4.22345769 33.3177994,5.00476406 32.6012117,6.26210673 C32.3781826,6.65359247 31.959029,6.89688347 31.5074044,6.89688347 L27.0015488,6.89688347 C25.0896589,6.89669846 23.5338362,5.34555647 23.5338362,3.43900611 L23.5338362,3.43900611 Z M33.3732783,16.2897661 L40.1823452,34.4696164 C39.7648614,34.7136474 39.3759522,35.0006013 39.022297,35.3256677 C37.7015641,30.1945403 34.3603954,25.8630355 29.8990715,23.2251321 L33.3732783,16.2897661 Z" id="Shape" fill="#000000" fill-rule="nonzero"></path>
                        </g>
                    </g>
                </g>
                <text id="C&amp;L" font-family="Poppins-ExtraBold, Poppins" font-size="69" font-weight="600" letter-spacing="1.47857143" fill="#F7EEDF">
                    <tspan x="2" y="129">C&amp;</tspan>
                    <tspan x="105.145143" y="129" font-family="Poppins-ExtraLight, Poppins" font-weight="300">L</tspan>
                </text>
            </g>
        </g>
    </g>
</svg>