<svg xmlns="http://www.w3.org/2000/svg" width="26" height="26" viewBox="0 0 26 26">
    <g fill="none" fill-rule="evenodd"  transform="translate(-18 -12)">
        <g fill="#164036" fill-rule="nonzero">
            <path d="M19.5 17c-1.379 0-2.5 1.121-2.5 2.5s1.121 2.5 2.5 2.5 2.5-1.121 2.5-2.5-1.121-2.5-2.5-2.5zm0 3.333c-.46 0-.833-.373-.833-.833 0-.46.373-.833.833-.833.46 0 .833.373.833.833 0 .46-.373.833-.833.833zM7.5 17C6.121 17 5 18.121 5 19.5S6.121 22 7.5 22s2.5-1.121 2.5-2.5S8.879 17 7.5 17zm0 3.333c-.46 0-.833-.373-.833-.833 0-.46.373-.833.833-.833.46 0 .833.373.833.833 0 .46-.373.833-.833.833z" transform="translate(18 12)"/>
            <path d="M25.187 4.875h-.812v-.813c0-2.24-1.823-4.062-4.063-4.062H5.687c-2.24 0-4.062 1.823-4.062 4.062v.813H.813c-.45 0-.813.363-.813.812v4.875c0 .45.363.813.813.813h.812v10.562c0 1.058.681 1.952 1.625 2.288v.962c0 .45.363.813.813.813h3.25c.449 0 .812-.363.812-.813v-.812h9.75v.812c0 .45.363.813.812.813h3.25c.45 0 .813-.363.813-.813v-.962c.944-.336 1.625-1.23 1.625-2.288V11.375h.812c.45 0 .813-.363.813-.813V5.687c0-.449-.363-.812-.813-.812zm-4.875-3.25c1.345 0 2.438 1.093 2.438 2.437V13h-8.938V1.625h6.5zm-14.625 0h6.5V13H3.25V4.062c0-1.344 1.093-2.437 2.437-2.437zm16.25 21.125H4.062c-.448 0-.812-.364-.812-.813v-7.312h19.5v7.312c0 .449-.364.813-.813.813z" transform="translate(18 12)"/>
        </g>
    </g>
</svg>
