<svg xmlns="http://www.w3.org/2000/svg" width="26" height="26" viewBox="0 0 26 26">
    <defs>
        <filter id="prefix__a">
            <feColorMatrix in="SourceGraphic" values="0 0 0 0 0.086275 0 0 0 0 0.250980 0 0 0 0 0.211765 0 0 0 1.000000 0"/>
        </filter>
    </defs>
    <g fill="none" fill-rule="evenodd" filter="url(#prefix__a)" transform="translate(-17 -12)">
        <g fill="#000" fill-rule="nonzero">
            <path d="M24.195 9.393l-1.944-7.407C21.939.798 21.001 0 19.916 0H6.084C5 0 4.061.798 3.75 1.986L1.805 9.393C.768 9.713 0 10.787 0 12.071v8.358c0 1.023.73 1.857 1.625 1.857v.928C1.625 24.75 2.718 26 4.062 26h1.625c1.345 0 2.438-1.25 2.438-2.786v-.928h9.75v.928c0 1.536 1.093 2.786 2.438 2.786h1.625c1.344 0 2.437-1.25 2.437-2.786v-.928c.896 0 1.625-.834 1.625-1.857V12.07c0-1.284-.768-2.357-1.805-2.678zM5.305 2.519c.105-.396.417-.662.78-.662h13.83c.363 0 .675.266.78.662l1.775 6.767H3.53l1.776-6.767zM6.5 23.214c0 .513-.364.929-.813.929H4.062c-.448 0-.812-.416-.812-.929v-.928H6.5v.928zm16.25 0c0 .513-.364.929-.812.929h-1.625c-.449 0-.813-.416-.813-.929v-.928h3.25v.928zM1.625 20.43v-8.357c0-.513.364-.929.812-.929h21.126c.448 0 .812.416.812.929v8.357H1.625z" transform="translate(17 12)"/>
            <path d="M6.5 13C5.121 13 4 14.346 4 16s1.121 3 2.5 3S9 17.654 9 16s-1.121-3-2.5-3zm0 4c-.46 0-.833-.448-.833-1s.373-1 .833-1c.46 0 .833.448.833 1s-.373 1-.833 1zM20.5 13c-1.379 0-2.5 1.346-2.5 3s1.121 3 2.5 3 2.5-1.346 2.5-3-1.121-3-2.5-3zm0 4c-.46 0-.833-.448-.833-1s.373-1 .833-1c.46 0 .833.448.833 1s-.373 1-.833 1z" transform="translate(17 12)"/>
        </g>
    </g>
</svg>
