<svg id="Capa_1" enable-background="new 0 0 511.999 511.999" height="512" viewBox="0 0 511.999 511.999" width="512" xmlns="http://www.w3.org/2000/svg"><g fill="#164036">><path d="m404.992 288.798c-18.278 0-33.148 14.871-33.148 33.149s14.87 33.149 33.148 33.149 33.149-14.871 33.149-33.149c.001-18.278-14.87-33.149-33.149-33.149zm0 51.298c-10.007 0-18.148-8.142-18.148-18.149 0-10.008 8.142-18.149 18.148-18.149 10.008 0 18.149 8.142 18.149 18.149.001 10.008-8.141 18.149-18.149 18.149z"/><path d="m85.295 288.798c-18.278 0-33.149 14.871-33.149 33.149s14.871 33.149 33.149 33.149 33.149-14.871 33.149-33.149-14.871-33.149-33.149-33.149zm0 51.298c-10.008 0-18.149-8.142-18.149-18.149 0-10.008 8.142-18.149 18.149-18.149s18.149 8.142 18.149 18.149c0 10.008-8.141 18.149-18.149 18.149z"/><path d="m0 318.2v8.111c0 9.062 7.372 16.434 16.435 16.434h13.874c8.42 22.184 29.886 38 54.986 38s46.567-15.815 54.986-38h73.153c4.143 0 7.5-3.358 7.5-7.5s-3.357-7.5-7.5-7.5h-69.628c.367-3.717.373-7.405.059-10.98h202.557c-.31 3.521-.312 7.26.06 10.98h-98.047c-4.143 0-7.5 3.358-7.5 7.5s3.357 7.5 7.5 7.5h101.571c8.42 22.184 29.886 38 54.986 38 25.101 0 46.567-15.815 54.987-38h35.586c9.062 0 16.434-7.372 16.434-16.434v-8.111c0-6.507-3.811-12.126-9.31-14.787v-23.216c0-23.738-16.569-44.533-40.319-49.375l-74.41-15.18c-.585-.119-1.164-.276-1.74-.448-2.208-8.874-10.22-15.477-19.767-15.477h-.957l-22.97-19.781c-3.14-2.703-7.875-2.35-10.577.789-2.703 3.139-2.351 7.874.788 10.577l12.674 10.914c-3.564 1.955-6.496 5.007-8.313 8.487l-34.777-29.949c-7.93-6.83-17.476-11.674-27.606-14.009-57.236-13.197-121.434-11.828-179.524 7.832-13.924 4.713-25.944 14.083-33.848 26.387-3.101 4.828-2.162 11.32 2.18 15.102l30.785 26.816c2.128 1.856 4.856 2.878 7.683 2.878h238.759c3.804 3.818 8.951 6.007 14.437 6.007h11.269c11.213 0 20.391-9.118 20.391-20.391v-.651l65.699 13.403v21.791c0 11.453 9.318 20.771 20.771 20.771h14.375v15.078h-27.454c-8.444-23.2-30.558-38.617-55.243-38.617-24.583 0-46.765 15.327-55.242 38.617h-209.216c-8.489-23.326-30.7-38.617-55.242-38.617-24.547 0-46.755 15.296-55.242 38.617h-7.89l-1.813-6.646c-1.056-3.872-1.591-7.87-1.591-11.883v-5.087h7.539c11.243 0 20.39-9.147 20.39-20.391v-6.609c0-10.665-8.233-19.428-18.675-20.304l23.385-36.34c9.351-14.531 23.554-25.598 39.991-31.161 78.038-26.412 150.023-16.446 185.987-8.155 10.57 2.438 20.332 7.018 29.013 13.613 3.299 2.507 8.004 1.863 10.509-1.434 2.506-3.298 1.864-8.003-1.435-10.509-10.382-7.889-22.063-13.368-34.718-16.286-37.512-8.649-112.617-19.037-194.165 8.563-19.642 6.647-36.615 19.876-47.796 37.251l-25.454 39.556c-6.22 9.667-9.571 21.008-9.571 32.562v12.143 12.587c0 5.346.713 10.672 2.119 15.83l1.485 5.443c-4.432 2.944-7.363 7.979-7.363 13.689zm292.531-126.081 42.263 36.395v2.245h-96.359v-55.156c12.953 1.595 24.108 3.728 32.91 5.757 7.768 1.79 15.093 5.511 21.186 10.759zm-216.937 14.568c11.219-15.387 26.3-19.379 47.487-24.637l8.261 48.709h-28.114zm70.962 24.072-8.812-51.957c44.867-8.754 79.098-4.779 85.69-4.703v56.66zm219.897 6.007h-11.269c-3.167 0-5.391-2.685-5.391-5.391 0-4.162 0-7.114 0-11.268 0-2.972 2.418-5.391 5.391-5.391h11.269c2.973 0 5.391 2.418 5.391 5.391v11.268c0 2.972-2.418 5.391-5.391 5.391zm38.539 128.979c-24.34 0-43.798-19.854-43.798-43.798 0-23.841 19.39-43.798 43.798-43.798 24.447 0 43.799 19.989 43.799 43.798 0 23.958-19.487 43.798-43.799 43.798zm62.551-99.828v-17.643c9.498 4.558 16.539 13.192 19.093 23.414h-13.321c-3.183 0-5.772-2.589-5.772-5.771zm27.646 50.849h.376c.79 0 1.434.644 1.434 1.435v8.111c0 .791-.644 1.434-1.434 1.434h-32.062c.381-3.813.363-7.53.06-10.98zm-409.894 48.979c-24.34 0-43.798-19.854-43.798-43.798 0-24.119 19.649-43.798 43.798-43.798 24.088 0 43.798 19.617 43.798 43.798 0 24.017-19.534 43.798-43.798 43.798zm-58.57-48.979c-.316 3.596-.302 7.359.06 10.98h-10.35c-.791 0-1.435-.644-1.435-1.434v-8.112c0-.791.644-1.435 1.435-1.435h10.29zm4.963-65.617v6.609c0 2.972-2.418 5.391-5.39 5.391h-7.538c.135-2.749-.612-9.1 1.834-17.39h5.705c2.972 0 5.389 2.418 5.389 5.39z"/><path d="m262.624 274.156c4.143 0 7.5-3.358 7.5-7.5s-3.357-7.5-7.5-7.5h-9.399c-4.143 0-7.5 3.358-7.5 7.5s3.357 7.5 7.5 7.5z"/><path d="m168.631 274.156c4.143 0 7.5-3.358 7.5-7.5s-3.357-7.5-7.5-7.5h-9.399c-4.143 0-7.5 3.358-7.5 7.5s3.357 7.5 7.5 7.5z"/></g></svg>