<?xml version="1.0" encoding="iso-8859-1"?>
<!-- Generator: Adobe Illustrator 19.0.0, SVG Export Plug-In . SVG Version: 6.00 Build 0)  -->
<svg version="1.1" id="Capa_1" xmlns="http://www.w3.org/2000/svg" xmlns:xlink="http://www.w3.org/1999/xlink" x="0px" y="0px"
	 viewBox="0 0 512 512" style="enable-background:new 0 0 512 512;" xml:space="preserve">
<g>
	<g>
		<path fill="#F7EEDF" d="M76,211H15c-8.284,0-15,6.716-15,15s6.716,15,15,15h61c8.284,0,15-6.716,15-15S84.284,211,76,211z"/>
	</g>
</g>
<g>
	<g>
		<path  fill="#F7EEDF" d="M466,211h-60c-8.284,0-15,6.716-15,15s6.716,15,15,15h60c8.284,0,15-6.716,15-15S474.284,211,466,211z"/>
	</g>
</g>
<g>
	<g>
		<path  fill="#F7EEDF" d="M410.706,56.295c-5.857-5.858-15.355-5.858-21.213,0l-42.426,42.426c-5.858,5.858-5.858,15.355,0,21.213
			c5.857,5.858,15.355,5.859,21.213,0l42.426-42.426C416.564,71.649,416.564,62.152,410.706,56.295z"/>
	</g>
</g>
<g>
	<g>
		<path  fill="#F7EEDF" d="M134.934,98.721L92.507,56.295c-5.857-5.859-15.355-5.859-21.212,0c-5.858,5.858-5.858,15.355,0,21.213l42.426,42.426
			c5.857,5.858,15.355,5.859,21.213,0C140.792,114.076,140.792,104.579,134.934,98.721z"/>
	</g>
</g>
<g>
	<g>
		<path fill="#F7EEDF"  d="M241,0c-8.284,0-15,6.716-15,15v61c0,8.284,6.716,15,15,15s15-6.716,15-15V15C256,6.716,249.284,0,241,0z"/>
	</g>
</g>
<g>
	<g>
		<path  fill="#F7EEDF" d="M509.388,488.541l-151.236-221.49C360.039,258.532,361,249.802,361,241c0-66.168-53.832-120-120-120s-120,53.832-120,120
			c0,26.005,8.183,50.751,23.665,71.563c11.225,15.089,25.52,27.115,41.964,35.451l-38.998,58.496L118,367
			c-2.831-3.774-7.272-5.997-11.99-6c-0.003,0-0.006,0-0.01,0c-4.714,0-9.154,2.216-11.988,5.984l-91,121
			c-3.417,4.543-3.972,10.628-1.433,15.715C4.118,508.786,9.315,512,15,512c14.366,0,467.682,0,482,0
			c5.562,0,10.667-3.078,13.264-7.996C512.861,499.086,512.524,493.134,509.388,488.541z M151,241c0-49.626,40.374-90,90-90
			c44.26,0,81.158,32.115,88.621,74.266l-1.233-1.806c-2.796-4.095-7.433-6.542-12.387-6.542c-0.028,0-0.056,0-0.084,0
			c-4.986,0.028-9.632,2.531-12.397,6.68l-60.557,90.841l-4.46-6.727c-2.775-4.186-7.46-6.705-12.483-6.711
			c-0.006,0-0.012,0-0.019,0c-5.015,0-9.699,2.506-12.48,6.679l-10.097,15.145C171.664,308.316,151,276.685,151,241z M45.05,482
			l60.934-81.022l30.369,40.492c2.921,3.895,7.557,6.126,12.416,5.994c4.866-0.135,9.364-2.623,12.065-6.673l65.132-97.697
			L318.058,482H45.05z M354.053,482L260.94,341.555l55.209-82.818C327.36,275.156,460.693,470.428,468.595,482H354.053z"/>
	</g>
</g>
<g>
</g>
<g>
</g>
<g>
</g>
<g>
</g>
<g>
</g>
<g>
</g>
<g>
</g>
<g>
</g>
<g>
</g>
<g>
</g>
<g>
</g>
<g>
</g>
<g>
</g>
<g>
</g>
<g>
</g>
</svg>
