<svg xmlns="http://www.w3.org/2000/svg" width="26" height="26" viewBox="0 0 26 26">
    <g fill="none" fill-rule="evenodd" transform="translate(-20 -12)">
        <g>
            <path fill="#164036" fill-rule="nonzero" d="M16.514 14.381c-.481.327-.992.649-1.514.965l1.327 3.103c.122.285.362.486.645.538.048.008.095.013.143.013.233 0 .46-.103.624-.291l2.014-2.286c.18-.204.268-.486.243-.769L19.658 12c-.51.41-1.057.836-1.634 1.274l.197 2.13-.855.97-.852-1.993zM25.637.826c-.48-.537-1.734-.85-3.117-.825-1.272.04-3.263.416-5.517 1.976-.648.448-1.494 1.146-2.58 2.127l-9.65-.815c-.242-.022-.476.081-.643.28L2.284 5.753c-.186.22-.266.53-.215.831.052.3.228.554.471.677l5.551 2.796c-1.109.717-2.566 1.444-3.354 1.81l-2.9-.618c-.276-.055-.548.046-.737.275l-.876 1.06c-.307.372-.297.958.022 1.315l4.325 4.836c.154.173.358.265.566.265.094 0 .187-.018.279-.057.293-.123 7.217-3.043 11.175-6.1 4.798-3.706 7.18-6.526 7.964-7.453.738-.873 2.097-3.426 1.082-4.564zm-2.247 3.26c-.754.893-3.049 3.608-7.706 7.204-3.215 2.484-8.709 4.974-10.35 5.692l-3.378-3.78.018-.022 2.697.575c.15.03.303.014.444-.048.39-.175 3.844-1.753 5.194-3.123.207-.212.307-.53.265-.846-.043-.315-.223-.584-.477-.712L4.267 6.09l.764-.905 9.588.81c.202.019.405-.055.565-.2 1.135-1.036 2.03-1.782 2.658-2.217 1.95-1.349 3.645-1.673 4.722-1.707.919-.035 1.534.142 1.798.237-.086.45-.46 1.373-.972 1.979zM3 24L22 24 22 26 3 26z" transform="translate(20 12)"/>
        </g>
    </g>
</svg>
