<?xml version="1.0" encoding="iso-8859-1"?>
<!-- Generator: Adobe Illustrator 19.0.0, SVG Export Plug-In . SVG Version: 6.00 Build 0)  -->
<svg version="1.1" id="Capa_1" xmlns="http://www.w3.org/2000/svg" xmlns:xlink="http://www.w3.org/1999/xlink" x="0px" y="0px"
	 viewBox="0 0 512 512" style="enable-background:new 0 0 512 512;" xml:space="preserve">
<g fill="#F7EEDF">
	<g fill="#F7EEDF">
		<path d="M477.492,379.957c-1.952-5.167-7.729-7.771-12.89-5.819c-5.167,1.953-7.771,7.724-5.819,12.89
			c3.921,10.372,5.908,21.28,5.908,32.422V452h-62.697v-60c0-5.522-4.478-10-10-10c-5.522,0-10,4.478-10,10v21.542l-5.597,5.963
			c-18.757,19.987-29.999,45.425-32.228,72.495h-78.042v-92.304c0-5.522-4.478-10-10-10c-5.522,0-10,4.478-10,10V492h-78.309
			c-2.229-27.069-13.47-52.508-32.228-72.495l-5.597-5.963V392c0-5.522-4.478-10-10-10c-5.522,0-10,4.478-10,10v60H47.31v-32.611
			c0-42.697,29.013-79.408,70.555-89.273l79.432-18.864c16.131,14.603,36.817,22.594,58.732,22.594
			c21.86,0,42.494-7.955,58.608-22.487l79.436,18.802c4.81,1.138,9.555,2.673,14.104,4.562c1.254,0.52,2.552,0.767,3.83,0.767
			c3.921-0.001,7.643-2.322,9.24-6.169c2.117-5.101-0.302-10.952-5.402-13.07c-5.538-2.299-11.313-4.166-17.165-5.552
			l-82.656-19.564v-20.46c22.923-13.528,38.481-38.226,39.15-66.557c17.842-1.015,32.048-15.848,32.048-33.94
			c0-9.546-3.96-18.18-10.316-24.361c4.634-5.27,7.454-12.173,7.454-19.726C384.357,56.563,327.794,0,258.27,0h-4.283
			c-69.526,0-126.09,56.563-126.09,126.089c0,7.49,2.773,14.34,7.339,19.593c-6.438,6.19-10.456,14.879-10.456,24.494
			c0,18.093,14.206,32.925,32.048,33.94c0.664,28.104,15.974,52.641,38.595,66.238v20.786l-82.181,19.517
			c-24.362,5.786-46.33,19.792-61.856,39.438C35.86,369.74,27.308,394.35,27.308,419.39V502c0,5.522,4.478,10,10,10h437.383
			c5.522,0,10-4.478,10-10v-82.551C484.692,405.883,482.271,392.596,477.492,379.957z M256.029,313.845
			c-14.881,0-29.021-4.783-40.685-13.606c0.047-0.394,0.08-0.792,0.08-1.197V278.88c6.633,1.802,13.602,2.781,20.798,2.781h39.559
			c6.994,0,13.776-0.917,20.242-2.623v20.004c0,0.552,0.048,1.094,0.135,1.624C284.603,309.22,270.671,313.845,256.029,313.845z
			 M335.22,167.881c0,6.203-2.58,12.212-7.077,16.484c-4.245,4.031-9.806,6.252-15.659,6.252h-16.319l34.265-34.266
			c0.113-0.113,0.211-0.234,0.317-0.351h4.473V167.881z M273.717,184.779c-3.605-6.401-10.348-10.365-17.717-10.365
			c-7.515,0-14.387,4.115-17.937,10.742c-1.803,3.368-5.296,5.461-9.116,5.461h-20.852l34.267-34.266
			c0.113-0.113,0.211-0.234,0.317-0.351h59.816L273.717,184.779z M355.221,184.016v-16.135v-11.545c6.773,0.976,12,6.801,12,13.84
			S361.994,183.04,355.221,184.016z M320.661,40.341c5.046,3.683,9.758,7.796,14.078,12.29l-20.884,16.465L320.661,40.341z
			 M191.487,40.421l6.788,28.676l-20.813-16.409C181.765,48.203,186.459,44.098,191.487,40.421z M156.781,167.961v16.056
			c-6.773-0.977-12-6.802-12-13.841s5.227-12.865,12-13.84V167.961z M157.807,136c-5.465,0-9.91-4.446-9.91-9.911
			c0-21.278,6.302-41.11,17.13-57.736l32.612,25.709c2.707,2.135,5.912,3.215,9.135,3.215c2.743,0,5.498-0.782,7.972-2.36
			c5.381-3.432,7.907-9.662,6.438-15.872l-11.661-49.264c11.241-5.211,23.539-8.514,36.479-9.482V91c0,5.522,4.478,10,10,10
			c5.522,0,10-4.478,10-10V20.283c12.989,0.94,25.335,4.23,36.619,9.445l-11.672,49.316c-1.471,6.211,1.056,12.441,6.437,15.873
			c2.474,1.578,5.229,2.36,7.972,2.36c3.223,0,6.428-1.08,9.135-3.214l32.696-25.776c10.854,16.64,17.172,36.495,17.172,57.802
			c0,5.465-4.445,9.911-9.91,9.911h-9.228H166.781H157.807z M176.779,156h0.001h37.647l-29.411,29.411
			c-0.414-0.343-0.829-0.685-1.222-1.06c-4.458-4.256-7.015-10.229-7.015-16.392V156z M176.829,204.132
			c6.727,4.216,14.515,6.485,22.609,6.485h29.51c11.209,0,21.459-6.14,26.748-16.02c0.121-0.227,0.489-0.225,0.608-0.002
			c5.29,9.882,15.54,16.021,26.749,16.021h29.431c8.122,0,15.94-2.281,22.688-6.52c-0.629,20.15-11.328,37.796-27.23,48.071
			c-0.317,0.209-5.915,3.685-10.968,5.573c-6.588,2.524-13.73,3.92-21.195,3.92H236.22c-7.763,0-15.175-1.511-21.979-4.23
			c-1.076-0.204-8.897-4.387-10.084-5.199C188.211,241.972,177.472,224.31,176.829,204.132z M109.995,492H47.31v-20h62.686V492z
			 M129.995,492v-47.772c9.937,14.124,16.034,30.526,17.741,47.772H129.995z M381.995,492h-17.742
			c1.707-17.246,7.805-33.648,17.742-47.772V492z M464.691,492h-62.697v-20h62.697V492z"/>
	</g>
</g>
<g fill="#F7EEDF">
	<g fill="#F7EEDF">
		<path d="M454.54,343.093c-0.255-0.271-0.511-0.543-0.769-0.813c-3.819-3.993-10.147-4.133-14.139-0.316
			c-3.992,3.817-4.134,10.146-0.316,14.139l0.628,0.664c1.969,2.102,4.631,3.163,7.3,3.163c2.45,0,4.905-0.895,6.835-2.702
			C458.109,353.453,458.316,347.124,454.54,343.093z"/>
	</g>
</g>
<g fill="#F7EEDF">
	<g fill="#F7EEDF">
		<path d="M263.201,353.93c-1.86-1.86-4.44-2.93-7.07-2.93c-2.64,0-5.21,1.069-7.07,2.93c-1.87,1.86-2.93,4.44-2.93,7.07
			s1.06,5.21,2.93,7.069c1.86,1.86,4.44,2.931,7.07,2.931c2.63,0,5.21-1.07,7.07-2.931c1.859-1.859,2.93-4.439,2.93-7.069
			S265.06,355.79,263.201,353.93z"/>
	</g>
</g>
<g>
</g>
<g>
</g>
<g>
</g>
<g>
</g>
<g>
</g>
<g>
</g>
<g>
</g>
<g>
</g>
<g>
</g>
<g>
</g>
<g>
</g>
<g>
</g>
<g>
</g>
<g>
</g>
<g>
</g>
</svg>
