<?xml version="1.0" encoding="iso-8859-1"?>
<!-- Generator: Adobe Illustrator 19.0.0, SVG Export Plug-In . SVG Version: 6.00 Build 0)  -->
<svg version="1.1" id="Capa_1" xmlns="http://www.w3.org/2000/svg" xmlns:xlink="http://www.w3.org/1999/xlink" x="0px" y="0px"
	 viewBox="0 0 511.999 511.999"  xml:space="preserve">
<g fill="#F7EEDF">
	<g fill="#F7EEDF">
		<path d="M505.577,278.213l-16.807-10.247c-4.271-2.604-6.72-6.966-6.72-11.967c0-5.001,2.449-9.363,6.719-11.967l16.808-10.247
			c3.516-2.142,5.358-6.22,4.643-10.274l-4.219-23.931c-0.714-4.053-3.841-7.255-7.876-8.067l-19.3-3.881
			c-4.903-0.986-8.696-4.247-10.406-8.946c-1.711-4.7-0.901-9.636,2.222-13.544l12.289-15.379c2.57-3.216,2.907-7.678,0.848-11.242
			l-12.149-21.043c-2.057-3.566-6.095-5.5-10.16-4.887l-19.464,2.953c-4.947,0.749-9.623-1.018-12.838-4.847
			c-3.216-3.832-4.143-8.748-2.545-13.487l6.288-18.654c1.314-3.9,0.104-8.208-3.049-10.854l-18.614-15.619
			c-3.153-2.645-7.604-3.09-11.22-1.117l-17.277,9.433c-4.391,2.396-9.393,2.336-13.724-0.165c-4.331-2.5-6.884-6.802-7.004-11.802
			l-0.471-19.68c-0.098-4.115-2.709-7.75-6.577-9.157l-22.834-8.311c-3.869-1.409-8.203-0.302-10.924,2.787l-13.012,14.772
			c-3.304,3.753-8.022,5.409-12.95,4.539c-4.926-0.868-8.796-4.037-10.618-8.695l-7.174-18.332C275.962,2.522,272.265,0,268.149,0
			H243.85c-4.117,0-7.813,2.522-9.313,6.355l-7.174,18.333c-1.822,4.657-5.692,7.826-10.618,8.694
			c-4.923,0.874-9.644-0.785-12.951-4.539l-13.011-14.772c-2.721-3.09-7.056-4.198-10.924-2.787l-22.834,8.311
			c-3.868,1.407-6.478,5.042-6.577,9.157l-0.471,19.68c-0.12,5-2.673,9.302-7.004,11.802c-4.333,2.501-9.335,2.561-13.723,0.165
			l-17.278-9.433c-3.615-1.972-8.067-1.529-11.22,1.117L82.138,67.702c-3.153,2.645-4.363,6.954-3.049,10.854l6.288,18.654
			c1.598,4.739,0.671,9.655-2.545,13.487c-3.214,3.83-7.891,5.597-12.839,4.847l-19.463-2.953c-4.066-0.613-8.101,1.323-10.16,4.887
			l-12.149,21.043c-2.058,3.564-1.721,8.026,0.848,11.242l12.29,15.38c3.122,3.907,3.932,8.843,2.221,13.543
			c-1.71,4.699-5.503,7.96-10.406,8.946l-19.3,3.881c-4.035,0.811-7.162,4.013-7.876,8.067l-4.219,23.931
			c-0.714,4.053,1.127,8.131,4.643,10.274l16.807,10.247c4.271,2.604,6.72,6.966,6.72,11.967c0,5.001-2.449,9.363-6.719,11.967
			L6.422,278.213c-3.516,2.142-5.358,6.22-4.643,10.274l4.22,23.932c0.714,4.053,3.841,7.255,7.876,8.067l19.3,3.881
			c4.903,0.986,8.696,4.247,10.406,8.946c1.711,4.7,0.901,9.636-2.222,13.544L29.07,362.236c-2.57,3.216-2.907,7.678-0.848,11.242
			l12.149,21.043c2.058,3.566,6.101,5.506,10.16,4.887l19.464-2.953c4.947-0.75,9.623,1.018,12.838,4.847
			c3.216,3.832,4.143,8.748,2.545,13.487l-6.288,18.654c-1.314,3.9-0.104,8.208,3.049,10.854l18.612,15.619
			c3.154,2.646,7.606,3.091,11.22,1.117l17.277-9.433c4.39-2.398,9.391-2.336,13.724,0.165c4.331,2.5,6.884,6.802,7.004,11.802
			l0.471,19.68c0.098,4.115,2.709,7.75,6.577,9.157l22.834,8.311c3.87,1.411,8.204,0.303,10.924-2.787l13.012-14.772
			c3.304-3.753,8.023-5.413,12.95-4.539c4.926,0.868,8.796,4.037,10.618,8.695l7.174,18.332c1.5,3.833,5.197,6.355,9.313,6.355
			h24.299c4.117,0,7.813-2.522,9.314-6.356l7.174-18.333c1.822-4.657,5.692-7.826,10.618-8.694
			c4.924-0.871,9.644,0.785,12.951,4.539l13.011,14.772c2.721,3.089,7.055,4.197,10.924,2.787l22.834-8.311
			c3.868-1.407,6.478-5.042,6.577-9.157l0.471-19.68c0.12-5,2.673-9.302,7.004-11.802c4.331-2.501,9.334-2.562,13.723-0.165
			l17.278,9.433c3.615,1.972,8.067,1.53,11.22-1.117l18.614-15.619c3.153-2.645,4.363-6.954,3.049-10.854l-6.288-18.654
			c-1.598-4.739-0.671-9.655,2.545-13.487c3.214-3.83,7.893-5.598,12.839-4.847l19.463,2.953c4.075,0.617,8.102-1.323,10.16-4.887
			l12.149-21.043c2.058-3.564,1.721-8.026-0.848-11.242l-12.29-15.38c-3.122-3.907-3.932-8.843-2.221-13.543
			c1.71-4.699,5.503-7.96,10.406-8.946l19.3-3.881c4.035-0.811,7.162-4.013,7.876-8.067l4.219-23.931
			C510.934,284.434,509.093,280.356,505.577,278.213z M487.491,302.222l-12.608,2.535c-11.725,2.359-21.167,10.476-25.257,21.714
			c-4.09,11.238-2.075,23.525,5.391,32.868l8.028,10.048l-5.324,9.221l-12.714-1.929c-11.827-1.795-23.473,2.603-31.161,11.765
			c-7.688,9.161-9.997,21.397-6.177,32.731l4.108,12.187l-8.157,6.845l-11.288-6.162c-10.496-5.731-22.948-5.581-33.306,0.398
			c-10.357,5.981-16.712,16.689-16.998,28.645l-0.308,12.856l-10.007,3.642l-8.499-9.65c-7.906-8.975-19.657-13.094-31.433-11.017
			c-11.779,2.077-21.413,9.966-25.771,21.103l-4.687,11.977h-10.648l-4.685-11.976c-4.359-11.137-13.993-19.027-25.771-21.103
			c-11.781-2.075-23.529,2.041-31.432,11.017l-8.5,9.65l-10.007-3.642l-0.308-12.856c-0.286-11.957-6.641-22.665-16.998-28.645
			c-10.359-5.979-22.809-6.128-33.307-0.398l-11.287,6.162l-8.157-6.845l4.108-12.187c3.82-11.334,1.51-23.57-6.177-32.731
			c-7.687-9.161-19.341-13.561-31.16-11.765l-12.715,1.929l-5.324-9.221l8.027-10.047c7.467-9.344,9.483-21.631,5.392-32.869
			c-4.09-11.238-13.532-19.356-25.257-21.714l-12.608-2.535l-1.849-10.487l10.98-6.694c10.211-6.227,16.308-17.083,16.308-29.043
			s-6.096-22.816-16.309-29.043l-10.979-6.694l1.849-10.487l12.608-2.535c11.725-2.359,21.167-10.476,25.257-21.714
			c4.09-11.238,2.075-23.525-5.391-32.868l-8.028-10.048l5.324-9.221l12.712,1.93c11.825,1.795,23.472-2.604,31.161-11.765
			c7.688-9.161,9.997-21.397,6.177-32.731l-4.108-12.187l8.157-6.845l11.288,6.162c10.497,5.733,22.949,5.581,33.306-0.398
			c10.357-5.981,16.712-16.689,16.998-28.645l0.308-12.856l10.007-3.642l8.499,9.65c7.905,8.975,19.654,13.093,31.433,11.017
			c11.779-2.077,21.413-9.966,25.771-21.103l4.687-11.977h10.648l4.687,11.975c4.359,11.137,13.993,19.027,25.771,21.103
			c11.774,2.075,23.527-2.041,31.432-11.017l8.5-9.65l10.007,3.642l0.308,12.856c0.286,11.957,6.641,22.665,16.998,28.645
			c10.359,5.979,22.809,6.128,33.307,0.398l11.287-6.162l8.157,6.845l-4.108,12.187c-3.82,11.334-1.51,23.57,6.177,32.731
			c7.687,9.161,19.338,13.56,31.16,11.765l12.715-1.929l5.324,9.221l-8.027,10.047c-7.467,9.344-9.483,21.631-5.392,32.869
			c4.09,11.238,13.532,19.356,25.257,21.714l12.608,2.535l1.849,10.487l-10.98,6.694c-10.211,6.227-16.308,17.083-16.308,29.043
			c0,11.96,6.097,22.816,16.309,29.043l10.979,6.694L487.491,302.222z"/>
	</g>
</g>
<g fill="#F7EEDF">
	<g fill="#F7EEDF">
		<path d="M256.673,146.001l-0.674-0.002c-5.522,0-10,4.478-10,10c0,5.522,4.478,10,10,10l0.58,0.002c0.017,0,0.031,0,0.048,0
			c5.501,0,9.974-4.446,9.999-9.953C266.652,150.525,262.195,146.027,256.673,146.001z"/>
	</g>
</g>
<g fill="#F7EEDF">
	<g fill="#F7EEDF">
		<path d="M297.545,154.119c-5.119-2.088-10.951,0.367-13.038,5.479c-2.087,5.113,0.366,10.951,5.479,13.038
			c34.027,13.887,56.013,46.609,56.013,83.363c0,49.626-40.374,90-90,90c-49.626,0-90-40.374-90-90
			c0-35.449,20.914-67.713,53.28-82.195c5.042-2.256,7.3-8.171,5.044-13.212c-2.255-5.04-8.169-7.301-13.212-5.044
			c-39.554,17.699-65.112,57.128-65.112,100.451c0,60.654,49.346,110,110,110s110-49.346,110-110
			C365.999,211.082,339.129,171.092,297.545,154.119z"/>
	</g>
</g>
<g fill="#F7EEDF">
	<g fill="#F7EEDF">
		<path d="M120.557,218.251c-5.989-6.625-14.547-10.424-23.481-10.424h-0.48c-16.361,0-29.95,12.311-31.608,28.635
			c-0.656,6.455-0.989,13.028-0.989,19.537c0,4.877,0.188,9.811,0.558,14.664c1.243,16.353,15.147,29.164,31.652,29.164h0.49
			c8.815,0,17.307-3.706,23.3-10.168c5.977-6.444,9.026-15.162,8.366-23.919c-0.243-3.216-0.366-6.493-0.366-9.741
			c0-4.342,0.22-8.717,0.652-13.005C129.562,233.967,126.613,224.948,120.557,218.251z M108.754,240.983
			c-0.501,4.953-0.755,10.005-0.755,15.016c0,3.749,0.143,7.533,0.423,11.247c0.247,3.271-0.85,6.401-3.087,8.814
			c-2.253,2.43-5.321,3.768-8.636,3.768h-0.49c-6.111,0-11.255-4.692-11.711-10.683c-0.331-4.351-0.499-8.774-0.499-13.146
			c0-5.837,0.298-11.729,0.887-17.515c0.617-6.076,5.651-10.657,11.711-10.657h0.481c3.338,0,6.409,1.362,8.646,3.837
			C108.027,234.212,109.104,237.522,108.754,240.983z"/>
	</g>
</g>
<g fill="#F7EEDF">
	<g fill="#F7EEDF">
		<path d="M402.359,335.134l-0.198-0.197c-6.385-6.386-15.231-9.781-24.242-9.349c-8.915,0.44-17.257,4.631-22.888,11.497
			c0,0.001,0,0.001,0,0.001c-4.8,5.854-10.15,11.317-15.907,16.238c-6.782,5.799-10.87,14.216-11.217,23.093
			c-0.343,8.791,3.029,17.401,9.251,23.624l0.344,0.344c6.144,6.144,14.313,9.256,22.498,9.256c7.321,0,14.653-2.491,20.557-7.53
			c8.644-7.377,16.683-15.572,23.894-24.358C414.867,365.065,413.967,346.742,402.359,335.134z M388.993,365.064
			c-6.465,7.876-13.671,15.223-21.419,21.835c-4.619,3.943-11.618,3.657-15.929-0.656l-0.344-0.344
			c-2.326-2.326-3.537-5.416-3.409-8.701c0.131-3.373,1.633-6.452,4.229-8.671c6.649-5.685,12.832-11.997,18.377-18.761
			c2.087-2.545,5.072-4.038,8.408-4.202c3.397-0.161,6.714,1.114,9.114,3.515l0.198,0.198
			C392.518,353.577,392.851,360.364,388.993,365.064z"/>
	</g>
</g>
<g fill="#F7EEDF">
	<g fill="#F7EEDF">
		<path d="M184.09,376.418c-0.347-8.877-4.435-17.294-11.218-23.094c-5.756-4.92-11.106-10.383-15.906-16.238
			c-5.631-6.866-13.973-11.057-22.888-11.497c-9.006-0.442-17.856,2.962-24.242,9.348l-0.198,0.198
			c-11.609,11.608-12.508,29.931-2.092,42.619c7.211,8.786,15.25,16.981,23.894,24.358c5.905,5.039,13.236,7.529,20.558,7.529
			c8.184-0.001,16.355-3.114,22.497-9.255l0.344-0.344C181.061,393.819,184.433,385.209,184.09,376.418z M160.699,385.898
			l-0.344,0.344c-4.313,4.312-11.309,4.6-15.929,0.656c-7.748-6.612-14.954-13.959-21.419-21.835
			c-3.859-4.7-3.526-11.487,0.775-15.787l0.198-0.198c0,0,0,0,0-0.001c2.26-2.26,5.338-3.527,8.523-3.527
			c0.196,0,0.393,0.004,0.593,0.013c3.334,0.165,6.319,1.657,8.406,4.202c5.545,6.764,11.728,13.076,18.376,18.76
			c2.596,2.22,4.098,5.299,4.23,8.672C164.236,380.482,163.025,383.572,160.699,385.898z"/>
	</g>
</g>
<g fill="#F7EEDF">
	<g fill="#F7EEDF">
		<path d="M447.01,236.463c-1.659-16.325-15.248-28.636-31.609-28.636h-0.48c-8.933,0-17.492,3.799-23.481,10.424
			c-6.056,6.697-9.005,15.716-8.094,24.744c0.433,4.287,0.653,8.662,0.653,13.004c0,3.248-0.123,6.525-0.366,9.742
			c-0.66,8.756,2.388,17.474,8.366,23.918c5.993,6.462,14.486,10.168,23.3,10.168h0.49c16.505,0,30.409-12.81,31.652-29.163
			c0.37-4.854,0.558-9.788,0.558-14.665C447.999,249.49,447.666,242.917,447.01,236.463z M427.5,269.145
			c-0.456,5.991-5.6,10.682-11.711,10.682h-0.49c-3.316,0-6.383-1.338-8.636-3.768c-2.237-2.413-3.334-5.542-3.087-8.813
			c0.28-3.714,0.423-7.498,0.423-11.247c0-5.011-0.254-10.062-0.754-15.015c-0.35-3.462,0.726-6.772,3.03-9.32
			c2.237-2.475,5.307-3.837,8.646-3.837h0.48c6.06,0,11.094,4.581,11.711,10.658c0.589,5.785,0.887,11.677,0.887,17.514
			C427.999,260.371,427.831,264.794,427.5,269.145z"/>
	</g>
</g>
<g fill="#F7EEDF">
	<g fill="#F7EEDF">
		<path d="M273.074,64.751c-11.275-1-22.877-1-34.148,0c-16.491,1.458-28.927,15.061-28.927,31.64v0.72
			c0,8.798,3.721,17.248,10.209,23.186c5.872,5.373,13.591,8.333,21.532,8.333c0.94,0,1.882-0.041,2.826-0.124
			c7.556-0.672,15.31-0.672,22.867,0c8.911,0.795,17.791-2.199,24.357-8.208c6.488-5.938,10.209-14.388,10.209-23.186v-0.72
			C301.999,79.812,289.563,66.21,273.074,64.751z M281.999,97.112c0,3.247-1.318,6.242-3.711,8.431
			c-2.472,2.262-5.697,3.345-9.086,3.041c-8.728-0.775-17.677-0.775-26.406,0c-3.387,0.304-6.614-0.779-9.086-3.041
			c-2.393-2.19-3.711-5.184-3.711-8.431v-0.72c0-6.142,4.595-11.179,10.69-11.718c5.053-0.448,10.205-0.675,15.31-0.675
			c5.105,0,10.257,0.227,15.312,0.675c6.093,0.539,10.688,5.576,10.688,11.718V97.112z"/>
	</g>
</g>
<g fill="#F7EEDF">
	<g fill="#F7EEDF">
		<path d="M291.789,391.7c-6.566-6.009-15.438-9-24.357-8.208c-7.556,0.672-15.31,0.672-22.867,0
			c-8.909-0.793-17.791,2.2-24.357,8.208c-6.488,5.938-10.209,14.388-10.209,23.186v0.72c0,16.58,12.436,30.182,28.925,31.64
			c5.637,0.5,11.383,0.753,17.075,0.753s11.438-0.253,17.073-0.752c16.491-1.458,28.927-15.061,28.927-31.64v-0.72
			C301.999,406.089,298.278,397.639,291.789,391.7z M281.998,415.607c0,6.142-4.594,11.179-10.69,11.718
			c-10.105,0.896-20.512,0.896-30.621,0c-6.093-0.539-10.688-5.576-10.688-11.718v-0.72c0-3.247,1.318-6.242,3.711-8.431
			c2.201-2.014,4.999-3.091,7.977-3.091c0.367,0,0.737,0.017,1.108,0.05c8.728,0.775,17.677,0.775,26.406,0
			c3.388-0.304,6.614,0.779,9.086,3.041c2.393,2.19,3.711,5.184,3.711,8.431V415.607z"/>
	</g>
</g>
<g fill="#F7EEDF">
	<g fill="#F7EEDF">
		<path d="M177.061,109.836l-0.198-0.198c-11.608-11.609-29.929-12.508-42.619-2.092c-8.786,7.211-16.981,15.25-24.358,23.894
			c-10.67,12.504-9.913,31.416,1.727,43.056l0.344,0.344c5.933,5.933,14.038,9.274,22.401,9.274c0.407,0,0.815-0.008,1.222-0.024
			c8.877-0.347,17.294-4.435,23.093-11.217c0-0.001,0-0.001,0.001-0.001c4.92-5.756,10.383-11.106,16.238-15.906
			c6.866-5.631,11.057-13.973,11.497-22.888C186.853,125.057,183.446,116.221,177.061,109.836z M162.232,141.501
			c-6.764,5.545-13.076,11.728-18.761,18.377c-2.219,2.595-5.299,4.097-8.671,4.229c-3.297,0.133-6.376-1.082-8.701-3.409
			l-0.344-0.344c-4.311-4.312-4.599-11.309-0.656-15.929c6.612-7.748,13.959-14.954,21.835-21.419
			c2.191-1.799,4.834-2.687,7.469-2.687c3.018,0,6.023,1.166,8.318,3.464l0.199,0.198c2.401,2.4,3.681,5.722,3.514,9.114
			C166.269,136.429,164.777,139.414,162.232,141.501z"/>
	</g>
</g>
<g fill="#F7EEDF">
	<g fill="#F7EEDF">
		<path d="M402.111,131.441c-7.377-8.644-15.572-16.683-24.358-23.894c-12.688-10.414-31.012-9.517-42.619,2.092l-0.197,0.198
			c-6.386,6.385-9.793,15.221-9.349,24.242c0.44,8.915,4.631,17.257,11.498,22.888c5.854,4.8,11.317,10.15,16.238,15.907
			c5.799,6.782,14.216,10.87,23.093,11.217c0.409,0.015,0.816,0.023,1.223,0.023c8.362,0,16.467-3.342,22.4-9.273l0.344-0.344
			C412.024,162.857,412.782,143.945,402.111,131.441z M386.243,160.352l-0.344,0.344c-2.325,2.327-5.404,3.542-8.701,3.409
			c-3.373-0.131-6.452-1.633-8.671-4.229c-5.685-6.649-11.997-12.832-18.76-18.377c-2.546-2.087-4.038-5.072-4.203-8.406
			c-0.167-3.391,1.114-6.714,3.515-9.114l0.198-0.198c2.296-2.296,5.3-3.461,8.318-3.461c2.633,0,5.278,0.888,7.469,2.684
			c7.876,6.465,15.223,13.671,21.835,21.419C390.843,149.043,390.555,156.04,386.243,160.352z"/>
	</g>
</g>
<g>
</g>
<g>
</g>
<g>
</g>
<g>
</g>
<g>
</g>
<g>
</g>
<g>
</g>
<g>
</g>
<g>
</g>
<g>
</g>
<g>
</g>
<g>
</g>
<g>
</g>
<g>
</g>
<g>
</g>
</svg>
