<svg id="Capa_1" enableBackground="new 0 0 511.361 511.361" height="512" viewBox="0 0 511.361 511.361" width="512" xmlns="http://www.w3.org/2000/svg"><g fill="#F7EEDF"><path d="m464.36 221.781h-29.77c-3.411 0-6.489-2.143-7.666-5.352-1.692-4.576-3.568-9.099-5.574-13.44-1.428-3.095-.768-6.794 1.644-9.205l21.049-21.049c4.382-4.381 6.795-10.205 6.795-16.399 0-6.193-2.413-12.017-6.795-16.398l-48.814-48.805c-4.377-4.384-10.2-6.798-16.397-6.798-6.198 0-12.021 2.414-16.393 6.792-1.159 1.161-21.063 21.311-22.381 22.118-4.846-12.871-11.756-25.587-20.639-37.796-24.273-33.36-61.575-59.88-105.039-74.675-4.747-1.617-9.874-.669-13.713 2.535-3.837 3.201-5.687 8.069-4.948 13.025 1.854 12.434 1.648 24.675-.611 36.385-3.928 20.352-12.257 29.346-19.613 47.164-9.33 22.601-17.324 59.244-9.15 88.135 1.427 5.044 3.402 9.942 5.888 14.68-19.364 20.979-29.961 48.029-29.961 76.793 0 62.535 50.876 113.41 113.41 113.41s113.41-50.875 113.41-113.41c0-17.013-3.677-33.373-10.928-48.626-1.778-3.741-6.253-5.332-9.993-3.553-3.741 1.778-5.332 6.252-3.554 9.994 6.287 13.225 9.475 27.418 9.475 42.186 0 54.264-44.146 98.41-98.41 98.41s-98.41-44.146-98.41-98.41c0-23.658 8.269-45.976 23.441-63.743 10.294 13.132 25.037 24.666 43.766 34.084 16.401 8.248 32.296 13.094 41.376 15.47-5.643 34.768-16.722 63.65-27.042 84.68-1.824 3.719-.289 8.212 3.43 10.037 3.648 1.79 8.191.334 10.037-3.429 11.131-22.683 23.102-54.071 28.861-91.942 48.595-30.827 61.931-67.989 65.53-87.586 2.936-15.982 2.175-32.679-2.06-49.338 2.73-1.15 5.245-2.813 7.372-4.939l21.065-21.055c1.543-1.545 3.597-2.396 5.783-2.396s4.239.851 5.787 2.401l48.819 48.81c1.548 1.548 2.4 3.605 2.4 5.791 0 2.187-.853 4.244-2.401 5.792l-21.05 21.05c-6.833 6.834-8.704 17.321-4.654 26.098 1.843 3.99 3.566 8.147 5.117 12.338 3.328 9.072 12.065 15.167 21.741 15.167h29.77c4.517 0 8.19 3.674 8.19 8.19v69.04c0 4.516-3.674 8.19-8.19 8.19h-29.77c-9.679 0-18.415 6.091-21.736 15.143-1.556 4.214-3.277 8.368-5.123 12.355-4.054 8.784-2.181 19.273 4.655 26.095l21.051 21.05c1.548 1.548 2.4 3.606 2.4 5.795 0 2.187-.851 4.24-2.401 5.788l-48.823 48.825c-1.543 1.545-3.597 2.396-5.782 2.396-2.187 0-4.24-.851-5.789-2.402l-21.052-21.043c-6.823-6.837-17.311-8.712-26.112-4.658-4.003 1.854-8.151 3.571-12.341 5.107-9.06 3.339-15.146 12.079-15.146 21.748v29.77c0 4.516-3.674 8.19-8.19 8.19h-69.039c-4.517 0-8.19-3.674-8.19-8.19v-29.77c0-9.669-6.087-18.409-15.158-21.752-4.178-1.532-8.326-3.25-12.344-5.11-8.788-4.049-19.275-2.173-26.09 4.658l-21.065 21.056c-1.543 1.545-3.597 2.396-5.783 2.396s-4.239-.851-5.786-2.401l-48.826-48.825c-1.546-1.542-2.396-3.596-2.396-5.783 0-2.189.853-4.247 2.401-5.796l21.044-21.044c6.842-6.828 8.715-17.316 4.657-26.11-1.842-3.978-3.563-8.131-5.114-12.332-3.326-9.066-12.062-15.157-21.741-15.157h-29.77c-4.517 0-8.19-3.674-8.19-8.19v-69.04c0-4.516 3.674-8.19 8.19-8.19h29.77c9.676 0 18.413-6.095 21.734-15.148 1.558-4.209 3.281-8.367 5.125-12.36 4.049-8.774 2.178-19.261-4.655-26.096l-21.051-21.05c-1.548-1.548-2.4-3.605-2.4-5.792 0-2.186.853-4.243 2.4-5.791l48.824-48.814c1.543-1.545 3.597-2.396 5.782-2.396 4.27 0 6.499 3.113 9.179 5.791 2.93 2.928 7.679 2.927 10.606-.001 2.929-2.93 2.928-7.678-.001-10.607-5.625-5.625-11.708-10.183-19.784-10.183-6.197 0-12.021 2.414-16.393 6.793l-48.819 48.81c-4.382 4.381-6.795 10.205-6.795 16.398 0 6.194 2.413 12.018 6.794 16.398l21.05 21.049c2.411 2.411 3.071 6.111 1.645 9.203-2.007 4.344-3.883 8.867-5.582 13.462-1.17 3.19-4.248 5.333-7.659 5.333h-29.77c-12.787 0-23.19 10.403-23.19 23.19v69.04c0 12.787 10.403 23.19 23.19 23.19h29.77c3.413 0 6.491 2.139 7.664 5.336 1.693 4.588 3.57 9.115 5.576 13.446 1.429 3.098.771 6.795-1.644 9.205l-21.049 21.049c-4.382 4.382-6.795 10.207-6.795 16.403 0 6.198 2.414 12.022 6.794 16.394l48.815 48.816c4.377 4.384 10.2 6.799 16.397 6.799 6.198 0 12.021-2.415 16.393-6.793l21.067-21.058c2.401-2.407 6.102-3.064 9.188-1.642 4.374 2.026 8.906 3.903 13.458 5.572 3.19 1.175 5.334 4.259 5.334 7.673v29.77c0 12.787 10.403 23.19 23.19 23.19h69.041c12.787 0 23.19-10.403 23.19-23.19v-29.77c0-3.414 2.144-6.498 5.322-7.669 4.563-1.673 9.096-3.55 13.455-5.569 3.101-1.428 6.802-.772 9.211 1.643l21.054 21.044c4.377 4.384 10.2 6.799 16.398 6.799 6.197 0 12.021-2.415 16.394-6.794l48.814-48.815c4.385-4.377 6.799-10.201 6.799-16.399 0-6.196-2.413-12.021-6.794-16.402l-21.056-21.055c-2.409-2.404-3.066-6.101-1.642-9.19 2.01-4.34 3.887-8.867 5.585-13.469 1.168-3.184 4.246-5.323 7.659-5.323h29.77c12.787 0 23.19-10.403 23.19-23.19v-69.04c.002-12.787-10.402-23.19-23.189-23.19zm-132.444-47.428c-6.039 32.875-29.367 56.348-48.421 70.501 2.007-25.091 1.027-53.685-3.526-79.185 4.663-4.218 8.679-9.024 11.948-14.357 7.997-13.046 9.717-26.119 9.751-34.788.017-4.142-3.328-7.513-7.471-7.53h-.03c-4.128 0-7.482 3.338-7.499 7.47-.026 6.753-1.356 16.92-7.54 27.007-.888 1.449-1.856 2.844-2.884 4.193-5.699-23.829-14.264-46.987-25.645-69.22-1.887-3.688-6.407-5.146-10.093-3.259-3.688 1.887-5.146 6.406-3.259 10.094 14.881 29.072 24.701 59.799 29.325 91.552-2.394-2.316-4.846-4.569-7.367-6.734-11.21-9.626-23.674-17.768-37.046-24.197-3.731-1.794-8.215-.225-10.009 3.509-1.795 3.733-.225 8.214 3.509 10.009 12.193 5.863 23.556 13.284 33.772 22.058 7.156 6.146 13.767 12.993 19.697 20.363.995 17.049.43 33.253-1.24 48.476-21.214-5.783-75.231-24.397-87.11-66.382-4.808-16.993-4.019-47.803 8.582-78.328 7.68-18.605 16.14-27.57 20.476-50.043 2.505-12.983 2.808-26.494.9-40.179 40.05 13.882 74.305 38.313 96.552 68.891 19.614 26.957 30.432 58.481 24.628 90.079z"/></g></svg>