<svg xmlns="http://www.w3.org/2000/svg" width="20" height="26" viewBox="0 0 20 26">
    <defs>
        <filter id="prefix__a">
            <feColorMatrix in="SourceGraphic" values="0 0 0 0 0.086275 0 0 0 0 0.250980 0 0 0 0 0.211765 0 0 0 1.000000 0"/>
        </filter>
    </defs>
    <g fill="none" fill-rule="evenodd" filter="url(#prefix__a)" transform="translate(-21 -12)">
        <g fill="#000" fill-rule="nonzero">
            <path d="M6.56 15.44c.586.585.586 1.535 0 2.12-.585.586-1.535.586-2.12 0-.586-.585-.586-1.535 0-2.12.585-.586 1.535-.586 2.12 0M16.56 15.44c.586.585.586 1.535 0 2.12-.585.586-1.535.586-2.12 0-.586-.585-.586-1.535 0-2.12.585-.586 1.535-.586 2.12 0" transform="translate(21 12)"/>
            <path d="M14.167 0H5.833C2.617 0 0 2.552 0 5.688v13c0 1.344 1.121 2.437 2.5 2.437h1.447l-1.135 4.486L4.43 26l.41-1.625h10.32L15.57 26l1.618-.389-1.135-4.486H17.5c1.379 0 2.5-1.093 2.5-2.437v-13C20 2.552 17.383 0 14.167 0zm-12.5 5.688c0-2.24 1.869-4.063 4.166-4.063h8.334c2.297 0 4.166 1.823 4.166 4.063V9.72c-.248.58-3.31 1.654-8.333 1.654-5.037 0-8.106-1.08-8.333-1.625V5.688zm13.08 17.062H5.253l.412-1.625h8.672l.412 1.625zM17.5 19.5h-15c-.46 0-.833-.364-.833-.812v-7.006C3.789 12.683 7.483 13 10 13c2.517 0 6.211-.317 8.333-1.318v7.006c0 .448-.373.812-.833.812z" transform="translate(21 12)"/>
        </g>
    </g>
</svg>
