<svg height="432pt" viewBox="0 -25 432.22718 432" width="432pt" xmlns="http://www.w3.org/2000/svg">
<g fill="#164036">
<path d="m344.015625 206.296875c-7.925781.023437-15.8125 1.121094-23.441406 3.265625l-8.558594-20.863281v-22.402344h72c4.417969 0 8-3.582031 8-8s-3.582031-8-8-8h-8v-4.796875c0-15.023438-12.179687-27.203125-27.199219-27.203125h-39.855468l-5.355469-10.703125c.902343.140625 1.8125.210938 2.722656.214844 7.242187.007812 13.871094-4.0625 17.144531-10.527344l1.488282-2.984375h11.054687c4.417969 0 8-3.582031 8-8v-24h8c4.417969 0 8-3.582031 8-8 .019531-22.558594-14.421875-42.59375-35.832031-49.703125-12.695313-4.21875-26.191406-5.480469-39.449219-3.6875-36.472656 5-43.445313 5.390625-44.71875 5.390625-4.066406-.164063-7.691406 2.550781-8.679687 6.496094-1.464844 6.195312-2.097657 8.867187 40.679687 30.441406v5.296875l-2.488281-.800781c-34.863282-11.53125-72.527344-11.40625-107.3125.359375l-30.015625 11.625c-1.0625.347656-2.101563.753906-3.121094 1.214844l-.800781.304687v.089844c-.644532.316406-1.300782.628906-1.941406 1h-30.320313v16h15.800781c-4.449218 8.664062-5.835937 18.578125-3.9375 28.132812.371094 1.761719.847656 3.5 1.425782 5.203125h-37.953126v16h47.414063c5.492187 5.839844 12.5 10.042969 20.242187 12.132813l7.382813 2.007812c-.085937.945313 0 1.898438.257813 2.808594l4.117187 13.6875h-54.75v16h59.550781l4.242188 14.183594-24.539063 31.707031c-38.242187-24.507812-88.859375-15.828125-116.75 20.019531-27.894531 35.847657-23.867187 87.046875 9.289063 118.089844h-27.792969v16h51.550781c23.128906 10.667969 49.769532 10.667969 72.898438 0h35.550781v-16h-11.792969c15.679688-14.679687 25.425782-34.605469 27.382813-56h17.882812c3.050781 8.554687 10.675781 14.644531 19.691407 15.730469 9.015624 1.085937 17.867187-3.019532 22.867187-10.601563 4.996094-7.582031 5.273437-17.335937.71875-25.191406l-.421875.246094c1.109375-4.246094.996094-8.71875-.328125-12.902344l65.136719-65.136719 4.429687 10.800782c-26.050781 12.578124-44.226562 37.191406-48.582031 65.789062-4.351562 28.601562 5.675781 57.507812 26.808594 77.265625h-43.792969v16h67.550781c32.742188 15.003906 71.316406 8.542969 97.382813-16.304687 26.066406-24.851563 34.359375-63.078126 20.9375-96.496094-13.425781-33.417969-45.859375-55.285156-81.871094-55.199219zm-48-24-43.023437-.09375 5.902343-11.738281c.644531-1.355469 1.214844-2.746094 1.703125-4.167969h35.417969zm-152.640625 104c-1.710938-11.617187-7.027344-22.410156-15.199219-30.847656l9.886719-12.796875c12.019531 11.605468 19.617188 27.039062 21.480469 43.644531zm-32.800781 0c-.605469-1.734375-1.410157-3.398437-2.398438-4.949219l10.167969-13.128906c4.417969 5.183594 7.445312 11.40625 8.800781 18.078125zm-14.558594 8c0 4.417969-3.582031 8-8 8s-8-3.582031-8-8 3.582031-8 8-8 8 3.582031 8 8zm184-144h-24c-4.417969 0-8-3.582031-8-8v-8h32zm-16-32h-16v-24c0-4.417969 3.582031-8 8-8s8 3.582031 8 8zm-32-7.078125-11.503906-7.671875c-.738281-.472656-1.550781-.816406-2.402344-1.015625l-.550781-.234375h14.457031zm-27.9375 46.28125 2.402344 2.398438-10.265625 22.238281h-2.855469l3.847656-26.503907zm-14.765625 77.839844 6.910156-15.007813 15.449219 8.269531-7.65625 15.296876zm-10.792969 23.429687 4.070313-8.800781 20.496094 11.859375c.121093.070313.183593.191406.3125.261719l1.71875.960937 8.363281 4.800781 4.207031 2.398438c2.851562 1.9375 4.074219 5.527344 3 8.800781l-1.074219 3.199219zm-1.320312-76.664062h-2.550781l-7.824219-26.03125-2.808594-9.496094 17.6875 4.800781zm11.632812 16-5.671875 12.296875-3.703125-12.304688zm-15.105469 76.503906 14.738282 8.488281c.007812.296875.035156.589844.078125.878906l.710937 2.355469h-13.648437c-.359375-3.9375-.988281-7.839843-1.878907-11.691406zm45.160157-60.3125-15.953125-8.542969 20.410156-44.222656c1.40625-3.042969.765625-6.636719-1.601562-9.007812l-4.96875-4.976563 4.800781-24.082031 10.402343 6.960937v11.871094c.03125 8.769531 4.855469 16.816406 12.574219 20.976563zm85.128906-64h-8v-16h32v16zm56-4.796875v4.796875h-16v-16h4.800781c6.183594 0 11.199219 5.015625 11.199219 11.203125zm-72-27.203125h-8v-16h3.054687l8 16zm17.414063-26.621094-9.414063-3.144531v-15.761719c4.359375 4.457031 9.398437 9.710938 14.34375 14.945313l-1.199219 2.398437c-.695312 1.363281-2.273437 2.023438-3.730468 1.5625zm22.585937-13.378906h-4.535156c-6.242188-6.636719-11.242188-11.871094-15.265625-16h19.800781zm-65.785156-58.261719c6.242187-.800781 14.28125-1.847656 24.671875-3.265625 10.832031-1.46875 21.855468-.441406 32.226562 3.007813 12.097656 4.015625 21.207032 14.082031 24 26.519531h-55.113281v-8c0-3.03125-1.710937-5.804687-4.425781-7.160156-7.070313-3.527344-14.773438-7.519531-21.359375-11.101563zm-94.558594 43.0625c31.390625-10.554687 65.359375-10.636718 96.800781-.230468l15.542969 5.199218v18.230469h-1.472656c-3.339844-9.582031-12.378907-16.007813-22.527344-16.007813-10.152344 0-19.1875 6.425782-22.527344 16.007813h-53.601562l-13.152344-16.445313c-1.363281-1.6875-2.902344-3.222656-4.582031-4.59375zm-44.105469 40.183594c-1.800781-8.972656 1.011719-18.253906 7.488282-24.71875.804687-.804688 1.695312-1.519531 2.65625-2.128906.433593-.253906.878906-.484375 1.335937-.6875l3-1.167969c5.953125-1.621094 12.304687.445313 16.160156 5.265625l15.558594 19.445312c.871094 1.070313 2 1.894532 3.28125 2.402344l33.816406 13.519532-5.015625 25.070312-58.640625-16c-10.003906-2.695312-17.617187-10.828125-19.640625-20.992188zm41.929688 104 7.542968 25.082031-8.558593 18.542969c-4.4375-7.761719-10.023438-14.808594-16.570313-20.894531zm-44.640625 151.015625h-.839844v.402344c-20.132813 10.128906-43.871094 10.128906-64 0v-.402344h-.800781c-23.519532-11.960937-38.605469-35.839844-39.300782-62.21875-.691406-26.378906 13.113282-51.019531 35.972657-64.203125s51.101562-12.789062 73.585937 1.023438l-29.960937 38.703124c-12.5-4.15625-26.007813 2.5625-30.238281 15.035157-4.230469 12.476562 2.402343 26.023437 14.851562 30.332031 12.449219 4.304688 26.035156-2.25 30.417969-14.671875h16.671875c-1.554688 7.691406-5.351563 14.746094-10.910156 20.28125l11.308593 11.3125c8.558594-8.53125 14.09375-19.625 15.769531-31.59375h16.160157c-2.71875 23.964844-17.238281 44.980469-38.6875 56zm87.160156-64v-.054687l12 6.839843c-1.195313.765625-2.582031 1.1875-4 1.214844-4.417969 0-8-3.582031-8-8zm18.335937-37.644531c-.082031-.058594-.144531-.128906-.222656-.1875l-8.21875-4.566406 11.585938-23 15.445312-30.664063 39.800782.089844zm117.664063 109.644531c-11.113281-.003906-22.070313-2.609375-32-7.597656v-.402344h-.800781c-24.128906-12.332031-39.269532-37.1875-39.15625-64.285156.109375-27.097657 15.453125-51.828125 39.683594-63.960938l18.402343 44.800781c-9.519531 6.769532-12.78125 19.410157-7.726562 29.941407 5.050781 10.527343 16.953125 15.890625 28.191406 12.703125 11.234375-3.191406 18.542969-14.007813 17.3125-25.621094-1.234375-11.617188-10.652344-20.65625-22.308594-21.417969l-18.886719-45.964843c27.046876-6.832032 55.609376 2.578124 73.296876 24.148437 17.691406 21.570313 21.332031 51.417969 9.339843 76.605469-11.988281 25.1875-37.453125 41.183594-65.347656 41.050781zm0-80c4.417969 0 8 3.582031 8 8s-3.582031 8-8 8-8-3.582031-8-8 3.582031-8 8-8zm0 0"/><path d="m79.949219 333.5-3.199219 15.671875c10.742188 2.191406 21.886719 1.191406 32.066406-2.875l-5.960937-14.839844c-7.277344 2.886719-15.234375 3.597657-22.90625 2.042969zm0 0"/></g><path d="m335.949219 333.5-3.199219 15.671875c10.742188 2.191406 21.886719 1.191406 32.066406-2.875l-5.960937-14.839844c-7.277344 2.886719-15.234375 3.597657-22.90625 2.042969zm0 0"/><path d="m376.464844 248.652344-9.25 13.03125c9.601562 6.820312 15.707031 17.523437 16.691406 29.261718.984375 11.734376-3.25 23.308594-11.578125 31.632813l11.3125 11.3125c11.65625-11.65625 17.585937-27.851563 16.207031-44.277344-1.375-16.425781-9.917968-31.410156-23.351562-40.960937zm0 0"/><path d="m64.015625 62.296875h16v16h-16zm0 0"/><path d="m40.015625 110.296875h16v16h-16zm0 0"/><path d="m64.015625 158.296875h16v16h-16zm0 0"/><path d="m208.015625 358.296875h16v16h-16zm0 0"/><path d="m176.015625 358.296875h16v16h-16zm0 0"/></svg>